<?xml version="1.0" encoding="UTF-8" standalone="no"?>
<!-- Created with Inkscape (http://www.inkscape.org/) -->

<svg
   xmlns:dc="http://purl.org/dc/elements/1.1/"
   xmlns:cc="http://creativecommons.org/ns#"
   xmlns:rdf="http://www.w3.org/1999/02/22-rdf-syntax-ns#"
   xmlns:svg="http://www.w3.org/2000/svg"
   xmlns="http://www.w3.org/2000/svg"
   xmlns:sodipodi="http://sodipodi.sourceforge.net/DTD/sodipodi-0.dtd"
   xmlns:inkscape="http://www.inkscape.org/namespaces/inkscape"
   id="svg2"
   version="1.1"
   inkscape:version="0.91 r13725"
   width="100"
   height="57"
   viewBox="0 0 100 57.000001"
   sodipodi:docname="Logo.svg">
  <metadata
     id="metadata8">
    <rdf:RDF>
      <cc:Work
         rdf:about="">
        <dc:format>image/svg+xml</dc:format>
        <dc:type
           rdf:resource="http://purl.org/dc/dcmitype/StillImage" />
        <dc:title></dc:title>
      </cc:Work>
    </rdf:RDF>
  </metadata>
  <defs
     id="defs6" />
  <sodipodi:namedview
     pagecolor="#ffffff"
     bordercolor="#666666"
     borderopacity="1"
     objecttolerance="10"
     gridtolerance="10"
     guidetolerance="10"
     inkscape:pageopacity="0"
     inkscape:pageshadow="2"
     inkscape:window-width="1280"
     inkscape:window-height="751"
     id="namedview4"
     showgrid="false"
     showguides="false"
     inkscape:zoom="2.8284272"
     inkscape:cx="22.460659"
     inkscape:cy="38.491058"
     inkscape:window-x="-4"
     inkscape:window-y="-4"
     inkscape:window-maximized="1"
     inkscape:current-layer="svg2"
     fit-margin-top="0"
     fit-margin-left="0"
     fit-margin-right="0"
     fit-margin-bottom="0" />
  <path
     style="fill:#000000"
     d=""
     id="path4162"
     inkscape:connector-curvature="0" />
  <path
     style="fill:#000000"
     d=""
     id="path4160"
     inkscape:connector-curvature="0" />
  <path
     style="fill:#000000"
     d=""
     id="path4158"
     inkscape:connector-curvature="0" />
  <path
     style="fill:#000000"
     d=""
     id="path4156"
     inkscape:connector-curvature="0" />
  <path
     style="fill:#000000"
     d=""
     id="path4154"
     inkscape:connector-curvature="0" />
  <path
     style="fill:#ffffff;fill-opacity:1"
     d="M 44.127287,56.596398 C 22.137963,53.83144 7.183583,22.697044 0.09978309,4.9947098 -0.97065689,1.9836809 6.845083,2.5182549 10.441662,2.5303929 c 3.59659,0.012038 8.98258,-0.508693 10.491111,2.3721282 3.41341,7.4780169 7.463645,17.3693909 14.063744,22.6630679 4.548861,2.434424 4.173231,-6.699278 4.32899,-11.015595 0.15576,-4.316416 1.09411,-11.7760756 -5.894419,-12.4595158 -0.23049,-0.023072 -0.230071,-0.522135 -0.0848,-0.75366 1.701489,-2.71239376 4.734849,-3.11696065 8.91423,-3.20212734 4.445709,-0.09028272 13.146629,-0.75034969 15.177279,1.97368054 0.94628,1.2693749 1.530071,3.7347953 1.030591,11.4944946 0.202919,4.499189 -1.489891,13.30386 2.441779,14.229158 2.49419,0.587038 6.65791,-6.828082 9.32682,-10.725186 3.47664,-5.247432 4.417,-9.642595 6.82248,-13.8351237 0.794,-1.1497002 6.54865,-0.6696971 10.527419,-0.6430136 3.978781,0.027085 11.271851,-0.3186979 11.844361,1.2187164 1.057983,2.9272666 -0.787781,5.8423952 -3.21467,9.7110089 -2.426901,3.868715 -8.31279,10.824397 -12.07965,16.625563 -1.7961,4.357746 2.03659,6.364028 6.07986,10.255916 4.04328,3.891987 7.69234,6.874728 9.43947,11.662019 1.747133,4.787291 -3.51808,4.911982 -7.84645,4.876571 -4.32837,-0.03511 -12.86205,0.32271 -15.05238,-0.944157 -4.77463,-2.937499 -9.86403,-11.895952 -13.59591,-12.35198 -3.73186,-0.455927 -4.7499,6.648721 -4.67031,10.823795 -0.0501,2.93158 -5.6139,2.463313 -8.07243,2.470335 -2.45852,0.01003 -4.78638,-0.179361 -6.29149,-0.38009 z"
     id="path4191"
     inkscape:connector-curvature="0"
     sodipodi:nodetypes="cczcczsssscscczczczzzczczc" />
</svg>
